<mxfile host="app.diagrams.net" modified="2023-06-09T19:58:21.712Z" agent="Mozilla/5.0 (X11; Linux x86_64; rv:109.0) Gecko/20100101 Firefox/112.0" etag="ieyQNkpy_W8Uh1rEPPTY" version="21.3.6" type="device">
  <diagram id="k2t_vNObkgoWgzWo94aV" name="Page-1">
    <mxGraphModel dx="989" dy="523" grid="0" gridSize="10" guides="1" tooltips="1" connect="1" arrows="1" fold="1" page="1" pageScale="1" pageWidth="827" pageHeight="1169" math="0" shadow="0">
      <root>
        <mxCell id="0" />
        <mxCell id="1" parent="0" />
        <mxCell id="rhtx9-ncO_oNOZYyBPlz-14" value="" style="rounded=0;whiteSpace=wrap;html=1;fillColor=#B35C32;strokeColor=#6D1F00;strokeWidth=2;fontColor=#ffffff;gradientColor=#FFFFFF;" parent="1" vertex="1">
          <mxGeometry x="37" y="208" width="720" height="250" as="geometry" />
        </mxCell>
        <mxCell id="rhtx9-ncO_oNOZYyBPlz-17" value="SOLO" style="text;html=1;strokeColor=none;fillColor=none;align=center;verticalAlign=middle;whiteSpace=wrap;rounded=0;fontSize=33;fontColor=#000000;" parent="1" vertex="1">
          <mxGeometry x="661" y="419" width="60" height="30" as="geometry" />
        </mxCell>
        <mxCell id="rhtx9-ncO_oNOZYyBPlz-19" value="" style="endArrow=none;html=1;rounded=0;fontSize=33;fontColor=#000000;strokeWidth=3;startArrow=oval;startFill=0;" parent="1" edge="1">
          <mxGeometry width="50" height="50" relative="1" as="geometry">
            <mxPoint x="281" y="448.63" as="sourcePoint" />
            <mxPoint x="281" y="378.63" as="targetPoint" />
          </mxGeometry>
        </mxCell>
        <mxCell id="rhtx9-ncO_oNOZYyBPlz-20" value="" style="endArrow=none;html=1;rounded=0;fontSize=33;fontColor=#000000;strokeWidth=3;startArrow=oval;startFill=0;" parent="1" edge="1">
          <mxGeometry width="50" height="50" relative="1" as="geometry">
            <mxPoint x="310" y="449" as="sourcePoint" />
            <mxPoint x="310" y="379" as="targetPoint" />
          </mxGeometry>
        </mxCell>
        <mxCell id="rhtx9-ncO_oNOZYyBPlz-21" value="" style="rounded=1;whiteSpace=wrap;html=1;fontSize=33;fontColor=#333333;strokeColor=#666666;strokeWidth=2;fillColor=#f5f5f5;rotation=90;" parent="1" vertex="1">
          <mxGeometry x="215.5" y="125.5" width="302.88" height="236.63" as="geometry" />
        </mxCell>
        <mxCell id="rhtx9-ncO_oNOZYyBPlz-22" value="&lt;span style=&quot;font-size: 20px;&quot;&gt;Módulo&lt;br&gt;de&amp;nbsp;&lt;br&gt;Sensoriamento&lt;/span&gt;" style="text;html=1;strokeColor=none;fillColor=none;align=center;verticalAlign=middle;whiteSpace=wrap;rounded=0;fontSize=13;fontColor=#000000;" parent="1" vertex="1">
          <mxGeometry x="78" y="128" width="60" height="30" as="geometry" />
        </mxCell>
        <mxCell id="rhtx9-ncO_oNOZYyBPlz-24" value="" style="image;html=1;image=img/lib/clip_art/telecommunication/Signal_tower_on_128x128.png;fontSize=13;fontColor=#000000;strokeColor=#000000;strokeWidth=1;fillColor=default;gradientColor=#FFFFFF;" parent="1" vertex="1">
          <mxGeometry x="311.94" y="24" width="80" height="80" as="geometry" />
        </mxCell>
        <mxCell id="1_WwKeXFeqq4wC-0H6YC-6" style="edgeStyle=orthogonalEdgeStyle;rounded=0;orthogonalLoop=1;jettySize=auto;html=1;exitX=0.5;exitY=0;exitDx=0;exitDy=0;fontSize=16;entryX=0.25;entryY=1;entryDx=0;entryDy=0;" parent="1" source="KLeCJPRy7CTDhVO2bG4A-3" target="1_WwKeXFeqq4wC-0H6YC-1" edge="1">
          <mxGeometry relative="1" as="geometry">
            <mxPoint x="320" y="299" as="targetPoint" />
          </mxGeometry>
        </mxCell>
        <mxCell id="KLeCJPRy7CTDhVO2bG4A-3" value="&lt;div&gt;sensor&lt;/div&gt;&lt;div&gt;de &lt;br&gt;&lt;/div&gt;&lt;div&gt;umidade&lt;br&gt;&lt;/div&gt;" style="rounded=1;whiteSpace=wrap;html=1;rotation=0;fillColor=#d5e8d4;strokeColor=#82b366;" parent="1" vertex="1">
          <mxGeometry x="268" y="342" width="53" height="72" as="geometry" />
        </mxCell>
        <mxCell id="1_WwKeXFeqq4wC-0H6YC-9" style="edgeStyle=orthogonalEdgeStyle;rounded=0;orthogonalLoop=1;jettySize=auto;html=1;exitX=0.5;exitY=0;exitDx=0;exitDy=0;entryX=0.5;entryY=1;entryDx=0;entryDy=0;fontSize=16;" parent="1" source="1_WwKeXFeqq4wC-0H6YC-1" target="1_WwKeXFeqq4wC-0H6YC-4" edge="1">
          <mxGeometry relative="1" as="geometry" />
        </mxCell>
        <mxCell id="1_WwKeXFeqq4wC-0H6YC-1" value="&lt;font style=&quot;font-size: 16px;&quot;&gt;Microcontrolador&lt;/font&gt;" style="rounded=0;whiteSpace=wrap;html=1;fillColor=#e1d5e7;strokeColor=#9673a6;" parent="1" vertex="1">
          <mxGeometry x="263" y="195" width="128" height="113" as="geometry" />
        </mxCell>
        <mxCell id="GpiarL9Sdl-ONH35HOWW-1" style="edgeStyle=orthogonalEdgeStyle;rounded=0;orthogonalLoop=1;jettySize=auto;html=1;entryX=0.5;entryY=1;entryDx=0;entryDy=0;" edge="1" parent="1" source="1_WwKeXFeqq4wC-0H6YC-4" target="rhtx9-ncO_oNOZYyBPlz-24">
          <mxGeometry relative="1" as="geometry" />
        </mxCell>
        <mxCell id="1_WwKeXFeqq4wC-0H6YC-4" value="Módulo de comunicação" style="rounded=0;whiteSpace=wrap;html=1;fontSize=16;fillColor=#dae8fc;strokeColor=#6c8ebf;" parent="1" vertex="1">
          <mxGeometry x="270" y="137" width="114" height="41" as="geometry" />
        </mxCell>
        <mxCell id="1_WwKeXFeqq4wC-0H6YC-12" style="edgeStyle=orthogonalEdgeStyle;rounded=0;orthogonalLoop=1;jettySize=auto;html=1;exitX=0.5;exitY=0;exitDx=0;exitDy=0;entryX=0.905;entryY=1.011;entryDx=0;entryDy=0;entryPerimeter=0;fontSize=13;" parent="1" source="1_WwKeXFeqq4wC-0H6YC-11" target="1_WwKeXFeqq4wC-0H6YC-1" edge="1">
          <mxGeometry relative="1" as="geometry" />
        </mxCell>
        <mxCell id="1_WwKeXFeqq4wC-0H6YC-11" value="&lt;font style=&quot;font-size: 13px;&quot;&gt;Alimentação&lt;/font&gt;" style="rounded=0;whiteSpace=wrap;html=1;fontSize=16;fillColor=#f8cecc;strokeColor=#b85450;" parent="1" vertex="1">
          <mxGeometry x="341" y="346" width="125" height="34" as="geometry" />
        </mxCell>
        <mxCell id="1_WwKeXFeqq4wC-0H6YC-13" value="" style="aspect=fixed;html=1;points=[];align=center;image;fontSize=12;image=img/lib/azure2/general/Power.svg;" parent="1" vertex="1">
          <mxGeometry x="349.17" y="353" width="15.53" height="24" as="geometry" />
        </mxCell>
        <mxCell id="1_WwKeXFeqq4wC-0H6YC-17" value="Conexão Local&lt;br&gt;Bluetooth / RF&lt;br&gt;ou diretamente para Nuvem" style="text;html=1;align=center;verticalAlign=middle;resizable=0;points=[];autosize=1;strokeColor=#6c8ebf;fillColor=#dae8fc;" parent="1" vertex="1">
          <mxGeometry x="434" y="31" width="167" height="55" as="geometry" />
        </mxCell>
        <mxCell id="GpiarL9Sdl-ONH35HOWW-4" style="edgeStyle=orthogonalEdgeStyle;rounded=0;orthogonalLoop=1;jettySize=auto;html=1;entryX=1;entryY=0.5;entryDx=0;entryDy=0;" edge="1" parent="1" source="GpiarL9Sdl-ONH35HOWW-3" target="1_WwKeXFeqq4wC-0H6YC-1">
          <mxGeometry relative="1" as="geometry">
            <Array as="points">
              <mxPoint x="410" y="251" />
              <mxPoint x="410" y="251" />
            </Array>
          </mxGeometry>
        </mxCell>
        <mxCell id="GpiarL9Sdl-ONH35HOWW-3" value="&lt;div&gt;sensor de temperatura&lt;/div&gt;" style="rounded=1;whiteSpace=wrap;html=1;fillColor=#d5e8d4;strokeColor=#82b366;" vertex="1" parent="1">
          <mxGeometry x="405" y="220.75" width="71" height="61.5" as="geometry" />
        </mxCell>
      </root>
    </mxGraphModel>
  </diagram>
</mxfile>
